<svg width="244" height="25" viewBox="0 0 244 25" fill="none" xmlns="http://www.w3.org/2000/svg">
<rect opacity="0.25" x="219.5" y="0.5" width="24" height="24" rx="12" stroke="#0051BA"/>
<path fill-rule="evenodd" clip-rule="evenodd" d="M231.069 10.3617L231.097 10.8192L230.645 10.7632C229.001 10.5484 227.565 9.82019 226.346 8.59713L225.75 7.99027L225.596 8.43841C225.271 9.4374 225.479 10.4924 226.156 11.202C226.517 11.5941 226.436 11.6501 225.813 11.4167C225.596 11.342 225.406 11.286 225.388 11.314C225.325 11.3794 225.542 12.229 225.714 12.5651C225.948 13.0319 226.427 13.4894 226.951 13.7601L227.393 13.9749L226.87 13.9842C226.364 13.9842 226.346 13.9935 226.4 14.1896C226.581 14.7965 227.294 15.4407 228.089 15.7208L228.649 15.9168L228.161 16.2156C227.439 16.6451 226.59 16.8878 225.741 16.9065C225.334 16.9158 225 16.9532 225 16.9812C225 17.0745 226.102 17.5974 226.743 17.8028C228.667 18.4096 230.952 18.1482 232.668 17.1119C233.887 16.3743 235.107 14.9085 235.676 13.4894C235.983 12.7331 236.29 11.3514 236.29 10.6885C236.29 10.259 236.317 10.203 236.823 9.68949C237.121 9.39072 237.401 9.06395 237.455 8.97059C237.545 8.79319 237.536 8.79319 237.076 8.95191C236.308 9.232 236.2 9.19466 236.579 8.77452C236.859 8.47576 237.193 7.93425 237.193 7.77553C237.193 7.74752 237.058 7.7942 236.904 7.87823C236.742 7.97159 236.38 8.11164 236.109 8.19567L235.622 8.35439L235.179 8.04629C234.935 7.87823 234.592 7.6915 234.411 7.63549C233.951 7.50478 233.246 7.52345 232.831 7.67283C231.702 8.09297 230.988 9.17599 231.069 10.3617Z" fill="#0051BA"/>
<rect opacity="0.25" x="188.5" y="0.5" width="24" height="24" rx="12" stroke="#0051BA"/>
<path fill-rule="evenodd" clip-rule="evenodd" d="M198.167 18.75V12.4995H196.875V10.3455H198.167V9.0522C198.167 7.29494 198.897 6.25 200.97 6.25H202.696V8.40428H201.617C200.81 8.40428 200.757 8.70531 200.757 9.26712L200.754 10.3452H202.708L202.48 12.4993H200.754V18.75H198.167Z" fill="#0051BA"/>
<rect opacity="0.25" x="31.5" y="0.5" width="24" height="24" rx="12" stroke="#0051BA"/>
<rect opacity="0.25" x="0.5" y="0.5" width="24" height="24" rx="12" stroke="#0051BA"/>
<rect opacity="0.25" x="94.5" y="0.5" width="24" height="24" rx="12" stroke="#0051BA"/>
<rect opacity="0.25" x="63.5" y="0.5" width="24" height="24" rx="12" stroke="#0051BA"/>
<rect opacity="0.25" x="156.5" y="0.5" width="24" height="24" rx="12" stroke="#0051BA"/>
<rect opacity="0.25" x="125.5" y="0.5" width="24" height="24" rx="12" stroke="#0051BA"/>
<path d="M43.5014 7H43.4986C40.4661 7 38 9.46675 38 12.5C38 13.7031 38.3878 14.8183 39.0471 15.7237L38.3616 17.7669L40.4757 17.0911C41.3454 17.6673 42.3828 18 43.5014 18C46.5339 18 49 15.5326 49 12.5C49 9.46744 46.5339 7 43.5014 7ZM46.7017 14.7667C46.569 15.1414 46.0424 15.4521 45.6223 15.5429C45.3349 15.6041 44.9596 15.6529 43.6959 15.129C42.0796 14.4594 41.0388 12.8169 40.9576 12.7104C40.8799 12.6038 40.3045 11.8407 40.3045 11.0514C40.3045 10.2622 40.7053 9.87788 40.8669 9.71288C40.9996 9.57744 41.2189 9.51556 41.4292 9.51556C41.4973 9.51556 41.5585 9.519 41.6135 9.52175C41.7751 9.52862 41.8562 9.53825 41.9627 9.79331C42.0954 10.113 42.4186 10.9023 42.4571 10.9834C42.4962 11.0645 42.5354 11.1745 42.4804 11.2811C42.4289 11.3911 42.3835 11.4399 42.3024 11.5334C42.2212 11.6269 42.1442 11.6984 42.0631 11.7988C41.9889 11.8861 41.905 11.9796 41.9985 12.1411C42.092 12.2993 42.4151 12.8266 42.8909 13.2501C43.5048 13.7966 44.0026 13.9713 44.1806 14.0455C44.3133 14.1005 44.4714 14.0874 44.5684 13.9843C44.6914 13.8516 44.8434 13.6316 44.9981 13.4151C45.1081 13.2597 45.2469 13.2404 45.3927 13.2954C45.5412 13.347 46.327 13.7354 46.4886 13.8159C46.6501 13.897 46.7567 13.9355 46.7959 14.0036C46.8344 14.0716 46.8344 14.3913 46.7017 14.7667Z" fill="#0051BA"/>
<path d="M11.3162 13.958L11.1342 16.5173C11.3946 16.5173 11.5073 16.4055 11.6425 16.2712L12.8631 15.1047L15.3922 16.9569C15.856 17.2154 16.1828 17.0792 16.3079 16.5302L17.968 8.75132L17.9685 8.75086C18.1156 8.06519 17.7205 7.79706 17.2686 7.96527L7.51066 11.7011C6.84471 11.9596 6.85479 12.3309 7.39746 12.4991L9.89217 13.2751L15.6869 9.64919C15.9596 9.46861 16.2075 9.56852 16.0036 9.74911L11.3162 13.958Z" fill="#0051BA"/>
<path d="M111.532 10.4475C111.234 9.91675 110.91 9.81913 110.251 9.782C109.592 9.73731 107.936 9.71875 106.501 9.71875C105.064 9.71875 103.407 9.73731 102.749 9.78131C102.091 9.81913 101.767 9.91606 101.465 10.4475C101.158 10.9776 101 11.8906 101 13.4979C101 13.4993 101 13.5 101 13.5C101 13.5014 101 13.5021 101 13.5021V13.5034C101 15.1039 101.158 16.0238 101.465 16.5484C101.767 17.0791 102.09 17.1754 102.748 17.2201C103.407 17.2586 105.064 17.2812 106.501 17.2812C107.936 17.2812 109.592 17.2586 110.252 17.2207C110.911 17.1761 111.235 17.0798 111.533 16.5491C111.843 16.0245 112 15.1046 112 13.5041C112 13.5041 112 13.5021 112 13.5007C112 13.5007 112 13.4993 112 13.4986C112 11.8906 111.843 10.9776 111.532 10.4475ZM105.125 15.5625V11.4375L108.562 13.5L105.125 15.5625Z" fill="#0051BA"/>
<path d="M76.5625 8H72.4375C70.5393 8 69 9.53931 69 11.4375V15.5625C69 17.4607 70.5393 19 72.4375 19H76.5625C78.4607 19 80 17.4607 80 15.5625V11.4375C80 9.53931 78.4607 8 76.5625 8ZM78.9688 15.5625C78.9688 16.8894 77.8894 17.9688 76.5625 17.9688H72.4375C71.1106 17.9688 70.0312 16.8894 70.0312 15.5625V11.4375C70.0312 10.1106 71.1106 9.03125 72.4375 9.03125H76.5625C77.8894 9.03125 78.9688 10.1106 78.9688 11.4375V15.5625Z" fill="#0051BA"/>
<path d="M74.5 10.75C72.9813 10.75 71.75 11.9813 71.75 13.5C71.75 15.0187 72.9813 16.25 74.5 16.25C76.0187 16.25 77.25 15.0187 77.25 13.5C77.25 11.9813 76.0187 10.75 74.5 10.75ZM74.5 15.2188C73.5526 15.2188 72.7812 14.4474 72.7812 13.5C72.7812 12.5519 73.5526 11.7812 74.5 11.7812C75.4474 11.7812 76.2188 12.5519 76.2188 13.5C76.2188 14.4474 75.4474 15.2188 74.5 15.2188Z" fill="#0051BA"/>
<path d="M77.4563 10.9101C77.6587 10.9101 77.8227 10.7461 77.8227 10.5437C77.8227 10.3413 77.6587 10.1772 77.4563 10.1772C77.2539 10.1772 77.0898 10.3413 77.0898 10.5437C77.0898 10.7461 77.2539 10.9101 77.4563 10.9101Z" fill="#0051BA"/>
<g clip-path="url(#clip0_849_327)">
<path d="M167.958 15.7481C167.106 15.6592 166.337 15.4492 165.678 14.9343C165.597 14.8702 165.512 14.8085 165.438 14.737C165.15 14.4602 165.121 14.1433 165.349 13.8167C165.544 13.5372 165.871 13.4624 166.212 13.6229C166.277 13.654 166.34 13.6928 166.4 13.7345C167.627 14.5775 169.313 14.6008 170.544 13.7724C170.666 13.6789 170.796 13.6026 170.948 13.5637C171.241 13.4882 171.516 13.5962 171.673 13.8533C171.853 14.147 171.851 14.4336 171.629 14.6616C171.289 15.0111 170.879 15.264 170.424 15.4405C169.994 15.6073 169.522 15.6913 169.056 15.7471C169.126 15.8237 169.159 15.8614 169.203 15.9056C169.837 16.542 170.473 17.1758 171.104 17.8141C171.319 18.0316 171.364 18.3013 171.246 18.5543C171.116 18.8308 170.827 19.0127 170.542 18.9932C170.362 18.9808 170.222 18.8912 170.097 18.7655C169.619 18.2845 169.132 17.8124 168.664 17.3223C168.528 17.1798 168.462 17.2067 168.342 17.3305C167.861 17.8255 167.372 18.313 166.881 18.7976C166.66 19.0153 166.397 19.0544 166.141 18.9301C165.869 18.7982 165.696 18.5204 165.709 18.2413C165.718 18.0525 165.811 17.9082 165.941 17.7789C166.568 17.1529 167.193 16.5254 167.818 15.8985C167.86 15.8568 167.898 15.8125 167.958 15.7481Z" fill="#0051BA"/>
<path d="M168.479 13.5678C166.957 13.5626 165.71 12.3015 165.719 10.7777C165.728 9.23721 166.976 7.99575 168.512 8.00001C170.051 8.00416 171.287 9.26348 171.279 10.82C171.272 12.3406 170.015 13.5731 168.479 13.5678ZM169.861 10.7814C169.859 10.0249 169.256 9.42258 168.501 9.42189C167.74 9.42108 167.132 10.0343 167.138 10.7978C167.143 11.5515 167.751 12.1495 168.508 12.1467C169.263 12.1441 169.864 11.5379 169.861 10.7814Z" fill="#0051BA"/>
</g>
<g clip-path="url(#clip1_849_327)">
<path d="M142.902 15.9599C142.872 15.9104 142.69 15.513 141.809 14.6962C140.888 13.8409 141.012 13.9798 142.122 12.5008C142.797 11.6002 143.068 11.0501 142.983 10.815C142.903 10.5908 142.406 10.65 142.406 10.65L140.753 10.6596C140.753 10.6596 140.63 10.6431 140.539 10.6974C140.45 10.751 140.393 10.8748 140.393 10.8748C140.393 10.8748 140.131 11.572 139.782 12.1646C139.045 13.4153 138.751 13.4813 138.63 13.4036C138.35 13.2228 138.421 12.6762 138.421 12.2884C138.421 11.0762 138.604 10.5709 138.062 10.4403C137.882 10.3969 137.75 10.3681 137.29 10.3632C136.7 10.3571 136.2 10.3653 135.918 10.5035C135.729 10.5956 135.584 10.8012 135.673 10.8129C135.782 10.8273 136.03 10.8796 136.161 11.0584C136.331 11.2887 136.325 11.8071 136.325 11.8071C136.325 11.8071 136.422 13.2338 136.097 13.4112C135.874 13.5329 135.568 13.2847 134.911 12.1495C134.575 11.5685 134.321 10.9257 134.321 10.9257C134.321 10.9257 134.272 10.806 134.185 10.7421C134.079 10.6644 133.93 10.6396 133.93 10.6396L132.358 10.6493C132.358 10.6493 132.123 10.6561 132.036 10.7586C131.959 10.85 132.03 11.0384 132.03 11.0384C132.03 11.0384 133.26 13.9172 134.653 15.3686C135.932 16.699 137.382 16.6117 137.382 16.6117H138.04C138.04 16.6117 138.238 16.5897 138.339 16.4804C138.433 16.38 138.429 16.1916 138.429 16.1916C138.429 16.1916 138.416 15.3095 138.826 15.1795C139.23 15.0517 139.748 16.0321 140.298 16.4096C140.713 16.6949 141.028 16.6323 141.028 16.6323L142.498 16.6117C142.498 16.6117 143.266 16.5643 142.902 15.9599Z" fill="#0051BA"/>
</g>
<defs>
<clipPath id="clip0_849_327">
<rect width="11" height="11" fill="white" transform="translate(163 8)"/>
</clipPath>
<clipPath id="clip1_849_327">
<rect width="11" height="11" fill="white" transform="translate(132 8)"/>
</clipPath>
</defs>
</svg>
